<mxfile host="app.diagrams.net" modified="2024-06-17T18:40:16.286Z" agent="Mozilla/5.0 (X11; Linux x86_64) AppleWebKit/537.36 (KHTML, like Gecko) Chrome/125.0.0.0 Safari/537.36" version="24.5.5" etag="BDAKr4rpPwj8qtgMaNn9" type="github">
  <diagram name="Page-1" id="_Ya8YJKAHmcjKSeLjdsb">
    <mxGraphModel>
      <root>
        <mxCell id="0" />
        <mxCell id="1" parent="0" />
      </root>
    </mxGraphModel>
  </diagram>
</mxfile>
